<svg xmlns="http://www.w3.org/2000/svg" xmlns:xlink="http://www.w3.org/1999/xlink" width="500" zoomAndPan="magnify" viewBox="0 0 375 374.999991" height="500" preserveAspectRatio="xMidYMid meet" version="1.0"><defs><g/><clipPath id="130fe34077"><rect x="0" width="166" y="0" height="17"/></clipPath></defs><g fill="#000000" fill-opacity="1"><g transform="translate(126.468284, 201.672083)"><g><path d="M 70.046875 -68.625 C 69.859375 -68.8125 69.691406 -69 69.546875 -69.1875 C 69.410156 -69.382812 69.242188 -69.578125 69.046875 -69.765625 C 69.992188 -71.472656 70.941406 -73.179688 71.890625 -74.890625 C 72.847656 -76.597656 73.800781 -78.304688 74.75 -80.015625 C 76.269531 -82.578125 77.859375 -85.140625 79.515625 -87.703125 C 81.179688 -90.265625 82.675781 -92.921875 84 -95.671875 C 85.132812 -97.859375 86.15625 -100.113281 87.0625 -102.4375 C 87.96875 -104.757812 88.847656 -107.109375 89.703125 -109.484375 C 90.078125 -110.523438 90.3125 -111.660156 90.40625 -112.890625 C 90.5 -114.128906 90.546875 -115.320312 90.546875 -116.46875 C 90.359375 -119.40625 89.382812 -121.65625 87.625 -123.21875 C 85.875 -124.789062 83.578125 -125.484375 80.734375 -125.296875 C 79.210938 -125.191406 77.710938 -124.972656 76.234375 -124.640625 C 74.765625 -124.316406 73.320312 -123.914062 71.90625 -123.4375 C 67.820312 -122.207031 63.878906 -120.640625 60.078125 -118.734375 C 56.285156 -116.835938 52.632812 -114.703125 49.125 -112.328125 C 43.332031 -108.347656 37.726562 -104.078125 32.3125 -99.515625 C 26.90625 -94.960938 21.734375 -90.125 16.796875 -85 C 15.378906 -83.476562 14.003906 -81.863281 12.671875 -80.15625 C 11.335938 -78.445312 10.148438 -76.644531 9.109375 -74.75 C 4.835938 -67.25 6.117188 -60.9375 12.953125 -55.8125 C 15.046875 -54.289062 17.207031 -52.863281 19.4375 -51.53125 C 21.664062 -50.207031 23.96875 -48.976562 26.34375 -47.84375 C 30.039062 -46.132812 33.8125 -44.519531 37.65625 -43 C 41.5 -41.476562 45.320312 -39.910156 49.125 -38.296875 C 53.101562 -36.585938 57.085938 -34.851562 61.078125 -33.09375 C 65.066406 -31.34375 68.957031 -29.519531 72.75 -27.625 C 75.03125 -26.476562 77.210938 -25.21875 79.296875 -23.84375 C 81.390625 -22.46875 83.382812 -21.019531 85.28125 -19.5 C 89.269531 -16.375 91.925781 -12.675781 93.25 -8.40625 C 94.582031 -4.132812 94.109375 0.707031 91.828125 6.125 C 91.640625 6.59375 91.453125 7.085938 91.265625 7.609375 C 91.078125 8.140625 90.835938 8.734375 90.546875 9.390625 C 91.210938 9.585938 91.804688 9.78125 92.328125 9.96875 C 92.847656 10.15625 93.488281 10.34375 94.25 10.53125 C 92.164062 10.914062 90.410156 11.628906 88.984375 12.671875 C 87.554688 13.710938 86.226562 14.945312 85 16.375 C 77.5 24.726562 69.050781 31.441406 59.65625 36.515625 C 50.257812 41.597656 40.054688 45.132812 29.046875 47.125 C 27.148438 47.507812 25.203125 47.703125 23.203125 47.703125 C 21.210938 47.703125 19.269531 47.601562 17.375 47.40625 C 16.132812 47.3125 14.894531 47.003906 13.65625 46.484375 C 12.425781 45.960938 11.242188 45.414062 10.109375 44.84375 C 9.253906 44.375 8.78125 43.6875 8.6875 42.78125 C 8.59375 41.882812 8.878906 41.101562 9.546875 40.4375 C 10.296875 39.488281 11.125 38.609375 12.03125 37.796875 C 12.9375 36.992188 13.863281 36.304688 14.8125 35.734375 C 16.425781 34.785156 18.0625 33.882812 19.71875 33.03125 C 21.375 32.175781 23.007812 31.414062 24.625 30.75 C 32.507812 27.238281 40.484375 24.035156 48.546875 21.140625 C 56.617188 18.242188 64.832031 15.800781 73.1875 13.8125 C 75.175781 13.332031 76.785156 12.546875 78.015625 11.453125 C 79.253906 10.367188 80.300781 8.925781 81.15625 7.125 C 82.957031 3.039062 83.5 -0.894531 82.78125 -4.6875 C 82.070312 -8.488281 80.101562 -11.910156 76.875 -14.953125 C 73.9375 -17.609375 70.710938 -19.789062 67.203125 -21.5 C 63.972656 -23.207031 60.671875 -24.820312 57.296875 -26.34375 C 53.929688 -27.863281 50.539062 -29.332031 47.125 -30.75 C 42.476562 -32.75 37.78125 -34.671875 33.03125 -36.515625 C 28.28125 -38.367188 23.582031 -40.289062 18.9375 -42.28125 C 16.5625 -43.320312 14.210938 -44.4375 11.890625 -45.625 C 9.566406 -46.8125 7.3125 -48.117188 5.125 -49.546875 C 3.507812 -50.585938 1.96875 -51.769531 0.5 -53.09375 C -0.96875 -54.425781 -2.367188 -55.804688 -3.703125 -57.234375 C -7.210938 -61.222656 -8.066406 -65.6875 -6.265625 -70.625 C -5.691406 -72.226562 -5.023438 -73.8125 -4.265625 -75.375 C -3.503906 -76.945312 -2.601562 -78.445312 -1.5625 -79.875 C -0.332031 -81.582031 1.015625 -83.242188 2.484375 -84.859375 C 3.960938 -86.472656 5.507812 -88.035156 7.125 -89.546875 C 17.175781 -99.046875 27.851562 -107.492188 39.15625 -114.890625 C 43.894531 -118.023438 48.828125 -120.753906 53.953125 -123.078125 C 59.078125 -125.410156 64.394531 -127.238281 69.90625 -128.5625 C 72.84375 -129.320312 75.757812 -129.769531 78.65625 -129.90625 C 81.550781 -130.050781 84.472656 -129.984375 87.421875 -129.703125 C 88.367188 -129.609375 89.222656 -129.46875 89.984375 -129.28125 C 95.015625 -127.945312 98.523438 -125.59375 100.515625 -122.21875 C 102.503906 -118.851562 102.789062 -114.65625 101.375 -109.625 C 100.613281 -106.78125 99.59375 -104.03125 98.3125 -101.375 C 97.03125 -98.71875 95.441406 -96.25 93.546875 -93.96875 C 90.316406 -89.976562 86.96875 -86.035156 83.5 -82.140625 C 80.039062 -78.253906 76.550781 -74.363281 73.03125 -70.46875 C 72.65625 -70.09375 72.179688 -69.757812 71.609375 -69.46875 C 71.046875 -69.1875 70.523438 -68.90625 70.046875 -68.625 Z M 20.5 42.28125 C 23.25 42.757812 26.546875 42.640625 30.390625 41.921875 C 34.234375 41.210938 38.289062 40.023438 42.5625 38.359375 C 46.84375 36.703125 51.019531 34.6875 55.09375 32.3125 C 59.175781 29.945312 62.878906 27.410156 66.203125 24.703125 C 69.523438 21.992188 72.132812 19.21875 74.03125 16.375 C 73.269531 16.5625 72.628906 16.722656 72.109375 16.859375 C 71.585938 17.003906 71.09375 17.128906 70.625 17.234375 C 63.40625 19.597656 56.28125 22.25 49.25 25.1875 C 42.226562 28.132812 35.398438 31.363281 28.765625 34.875 C 27.523438 35.539062 26.3125 36.300781 25.125 37.15625 C 23.9375 38.007812 22.773438 38.816406 21.640625 39.578125 C 21.265625 39.859375 20.910156 40.210938 20.578125 40.640625 C 20.242188 41.066406 20.21875 41.613281 20.5 42.28125 Z M 20.5 42.28125 "/></g></g></g><g fill="#ffffff" fill-opacity="1"><g transform="translate(174.822736, 205.189191)"><g><path d="M 69.34375 -44.972656 C 69.078125 -44.042969 68.796875 -43.101562 68.5 -42.140625 C 68.335938 -41.625 68.277344 -41.003906 68.316406 -40.277344 L 64.703125 -40.078125 L 64.402344 -43.683594 C 65.09375 -43.742188 65.722656 -43.816406 66.289062 -43.898438 C 66.992188 -44.003906 67.695312 -44.09375 68.398438 -44.164062 L 72.628906 -44.550781 C 74.0625 -44.683594 75.484375 -44.785156 76.890625 -44.851562 L 76.976562 -44.855469 L 77.0625 -44.855469 C 77.972656 -44.855469 78.875 -44.730469 79.769531 -44.484375 C 80.453125 -44.292969 81.101562 -44.085938 81.714844 -43.855469 C 82.828125 -43.4375 83.75 -42.789062 84.480469 -41.914062 C 85.511719 -40.675781 85.871094 -39.125 85.558594 -37.261719 L 85.320312 -35.8125 L 84.136719 -34.941406 C 83.011719 -34.109375 81.792969 -33.617188 80.484375 -33.460938 C 79.207031 -33.3125 77.917969 -33.488281 76.613281 -34 C 76.222656 -34.15625 75.878906 -34.210938 75.578125 -34.171875 C 74.734375 -34.054688 73.902344 -33.910156 73.089844 -33.734375 C 71.628906 -33.417969 70.132812 -33.082031 68.601562 -32.730469 C 67.066406 -32.378906 65.503906 -32.011719 63.90625 -31.628906 L 63.058594 -35.152344 L 66.515625 -34.070312 C 64.859375 -28.78125 63.328125 -23.460938 61.929688 -18.105469 L 57.679688 -1.972656 L 53.679688 14.011719 L 49.027344 32.625 L 46.375 32.78125 C 44.683594 32.878906 43.386719 32.722656 42.488281 32.316406 C 41.511719 31.871094 40.789062 31.160156 40.320312 30.183594 C 39.996094 29.503906 39.835938 28.746094 39.835938 27.910156 L 39.835938 27.824219 L 39.839844 27.738281 C 39.902344 26.441406 39.929688 25.164062 39.929688 23.902344 C 39.929688 22.34375 40.082031 20.800781 40.386719 19.28125 C 41.488281 13.902344 42.636719 8.546875 43.832031 3.214844 L 47.355469 -12.664062 C 48.074219 -15.730469 48.804688 -18.769531 49.550781 -21.777344 C 50.285156 -24.753906 51.007812 -27.75 51.710938 -30.761719 L 51.75 -30.925781 L 51.800781 -31.082031 C 51.863281 -31.261719 51.910156 -31.46875 51.941406 -31.703125 C 52.019531 -32.246094 52.132812 -32.851562 52.28125 -33.523438 L 55.816406 -32.738281 L 55.816406 -29.117188 C 55.167969 -29.117188 54.566406 -29.175781 54.019531 -29.296875 C 54.382812 -29.21875 54.78125 -29.25 55.222656 -29.398438 L 55.148438 -29.371094 L 40.007812 -25.054688 L 24.941406 -20.757812 L 23.949219 -24.238281 L 25.09375 -20.804688 C 25.207031 -20.839844 25.304688 -20.886719 25.378906 -20.9375 C 24.917969 -20.628906 24.4375 -20.390625 23.9375 -20.222656 L 22.789062 -23.660156 L 26.164062 -22.347656 C 25.757812 -21.296875 25.246094 -19.683594 24.632812 -17.511719 C 24 -15.253906 23.3125 -12.691406 22.582031 -9.824219 C 21.84375 -6.941406 21.109375 -3.96875 20.375 -0.894531 C 19.636719 2.175781 18.964844 5.082031 18.359375 7.832031 C 17.757812 10.550781 17.285156 12.882812 16.941406 14.828125 C 16.625 16.613281 16.464844 17.789062 16.464844 18.347656 L 16.464844 20.71875 L 14.289062 21.667969 C 12.054688 22.644531 10.128906 22.765625 8.507812 22.035156 C 7.378906 21.527344 6.539062 20.699219 5.992188 19.546875 C 5.601562 18.730469 5.390625 17.785156 5.359375 16.714844 L 5.359375 16.609375 C 5.359375 15.261719 5.394531 13.925781 5.460938 12.609375 C 5.535156 11.164062 5.71875 9.738281 6.015625 8.332031 L 8.5625 -4.976562 L 11.121094 -18.445312 L 14.679688 -17.769531 L 11.09375 -18.28125 C 11.152344 -18.703125 11.214844 -19.171875 11.273438 -19.6875 C 11.351562 -20.332031 11.460938 -21.023438 11.609375 -21.761719 L 15.160156 -21.050781 L 15.523438 -17.449219 C 14.628906 -17.359375 13.863281 -17.171875 13.222656 -16.882812 C 12.09375 -16.371094 10.941406 -15.933594 9.773438 -15.566406 C 8.910156 -15.28125 8.023438 -15.039062 7.113281 -14.851562 C 6.195312 -14.660156 5.277344 -14.527344 4.355469 -14.449219 L 4.207031 -14.4375 L 4.054688 -14.4375 C 2.9375 -14.4375 1.882812 -14.769531 0.886719 -15.429688 C 0.6875 -15.566406 0.460938 -15.6875 0.214844 -15.792969 L -3.257812 -17.28125 L -1.625 -20.6875 C -0.457031 -23.113281 1.214844 -24.796875 3.402344 -25.734375 C 4.734375 -26.304688 6.035156 -26.875 7.300781 -27.445312 L 8.789062 -24.140625 L 7.101562 -27.347656 C 8.46875 -28.066406 9.886719 -28.695312 11.359375 -29.234375 C 12.636719 -29.699219 13.960938 -30.214844 15.335938 -30.777344 L 16.707031 -27.425781 L 13.179688 -28.25 C 13.636719 -30.203125 14.109375 -32.140625 14.597656 -34.0625 C 15.074219 -35.941406 15.535156 -37.832031 15.980469 -39.742188 L 19.085938 -51.976562 L 22.195312 -64.210938 L 22.214844 -64.273438 C 22.550781 -65.421875 22.90625 -66.535156 23.277344 -67.617188 C 23.640625 -68.679688 24.023438 -69.742188 24.421875 -70.800781 C 24.816406 -71.792969 25.304688 -72.671875 25.878906 -73.441406 C 26.699219 -74.53125 27.796875 -75.328125 29.183594 -75.832031 L 29.300781 -75.875 L 29.425781 -75.910156 C 30.359375 -76.175781 31.316406 -76.246094 32.296875 -76.113281 C 33.101562 -76.007812 34.261719 -75.632812 35.785156 -74.992188 L 38.089844 -74.023438 L 37.996094 -71.519531 C 37.921875 -69.4375 37.554688 -67.410156 36.898438 -65.441406 C 36.390625 -63.917969 35.957031 -62.347656 35.597656 -60.730469 C 35.203125 -58.964844 34.796875 -57.21875 34.371094 -55.484375 C 33.945312 -53.753906 33.503906 -52.039062 33.046875 -50.335938 L 29.550781 -51.277344 L 33.070312 -50.421875 L 30.546875 -40.046875 L 30.535156 -40.003906 C 30.09375 -38.363281 29.667969 -36.6875 29.257812 -34.980469 C 28.828125 -33.203125 28.351562 -31.363281 27.828125 -29.457031 L 24.335938 -30.417969 L 24.335938 -34.042969 C 24.949219 -34.042969 25.503906 -34.019531 25.988281 -33.980469 C 26.027344 -33.976562 26.058594 -33.976562 26.078125 -33.976562 C 26.070312 -33.976562 26.058594 -33.972656 26.039062 -33.972656 L 26.75 -30.417969 L 25.847656 -33.925781 L 40.335938 -37.644531 C 45.167969 -38.902344 50.035156 -40.144531 54.9375 -41.367188 L 55.816406 -37.855469 L 54.671875 -41.292969 L 54.648438 -41.289062 C 55.019531 -41.5 55.445312 -41.703125 55.921875 -41.894531 L 57.265625 -38.53125 L 53.832031 -39.675781 L 54.457031 -41.558594 C 54.664062 -42.171875 54.851562 -42.800781 55.027344 -43.445312 L 60.285156 -63.035156 C 62.0625 -69.558594 63.886719 -76.082031 65.761719 -82.601562 C 66.433594 -84.960938 67.226562 -87.304688 68.136719 -89.632812 C 69.019531 -91.886719 69.917969 -94.089844 70.832031 -96.246094 C 71.847656 -98.65625 73.328125 -100.046875 75.273438 -100.417969 C 76.664062 -100.679688 78.464844 -100.351562 80.675781 -99.429688 L 83.050781 -98.441406 L 82.898438 -95.875 C 82.820312 -94.554688 82.625 -93.269531 82.316406 -92.023438 C 82.0625 -91.007812 81.808594 -89.960938 81.554688 -88.882812 L 81.535156 -88.808594 L 75.382812 -66.863281 L 69.351562 -45.003906 Z M 62.371094 -46.929688 L 68.410156 -68.816406 L 74.542969 -90.691406 L 78.027344 -89.714844 L 74.503906 -90.542969 C 74.765625 -91.652344 75.027344 -92.730469 75.289062 -93.777344 C 75.492188 -94.589844 75.617188 -95.429688 75.667969 -96.300781 L 79.285156 -96.085938 L 77.890625 -92.746094 C 77.304688 -92.988281 76.832031 -93.152344 76.472656 -93.234375 C 76.378906 -93.257812 76.316406 -93.269531 76.28125 -93.273438 C 76.371094 -93.265625 76.488281 -93.273438 76.628906 -93.300781 C 77.105469 -93.394531 77.46875 -93.578125 77.714844 -93.863281 C 77.679688 -93.820312 77.605469 -93.671875 77.5 -93.417969 C 76.613281 -91.324219 75.738281 -89.183594 74.882812 -86.992188 C 74.054688 -84.878906 73.335938 -82.75 72.722656 -80.601562 C 70.859375 -74.117188 69.046875 -67.632812 67.28125 -61.15625 L 62.015625 -41.539062 C 61.804688 -40.765625 61.574219 -40.007812 61.328125 -39.269531 L 60.171875 -35.792969 L 58.609375 -35.167969 C 58.445312 -35.101562 58.320312 -35.046875 58.242188 -35 C 57.808594 -34.753906 57.382812 -34.558594 56.960938 -34.417969 L 56.832031 -34.375 L 56.695312 -34.34375 C 51.8125 -33.121094 46.960938 -31.882812 42.136719 -30.628906 L 27.554688 -26.886719 L 27.460938 -26.867188 C 26.804688 -26.738281 26.113281 -26.703125 25.386719 -26.761719 C 25.101562 -26.785156 24.75 -26.796875 24.335938 -26.796875 L 19.578125 -26.796875 L 20.84375 -31.382812 C 21.347656 -33.210938 21.804688 -34.976562 22.214844 -36.675781 C 22.640625 -38.445312 23.082031 -40.183594 23.542969 -41.886719 L 27.039062 -40.945312 L 23.519531 -41.800781 L 26.042969 -52.175781 L 26.054688 -52.21875 C 26.496094 -53.867188 26.925781 -55.53125 27.335938 -57.210938 C 27.75 -58.890625 28.144531 -60.589844 28.527344 -62.300781 C 28.9375 -64.160156 29.4375 -65.96875 30.027344 -67.730469 C 30.464844 -69.042969 30.707031 -70.398438 30.761719 -71.789062 L 34.378906 -71.65625 L 32.972656 -68.316406 C 32.046875 -68.707031 31.503906 -68.914062 31.339844 -68.933594 C 31.355469 -68.933594 31.382812 -68.9375 31.414062 -68.945312 L 30.417969 -72.425781 L 31.65625 -69.023438 C 31.605469 -69.003906 31.578125 -68.992188 31.566406 -68.984375 C 31.605469 -69.011719 31.640625 -69.050781 31.675781 -69.097656 C 31.480469 -68.835938 31.324219 -68.558594 31.203125 -68.257812 C 30.828125 -67.261719 30.46875 -66.261719 30.125 -65.261719 C 29.789062 -64.285156 29.46875 -63.273438 29.160156 -62.230469 L 25.6875 -63.253906 L 29.199219 -62.363281 L 26.109375 -50.195312 L 23.035156 -38.09375 C 22.578125 -36.140625 22.105469 -34.203125 21.617188 -32.28125 C 21.140625 -30.402344 20.679688 -28.511719 20.234375 -26.601562 L 19.808594 -24.78125 L 18.078125 -24.074219 C 16.621094 -23.476562 15.210938 -22.929688 13.847656 -22.429688 C 12.679688 -22.003906 11.554688 -21.507812 10.472656 -20.9375 L 10.375 -20.886719 L 10.273438 -20.839844 C 8.964844 -20.25 7.628906 -19.664062 6.253906 -19.074219 C 5.738281 -18.851562 5.285156 -18.347656 4.90625 -17.554688 L 1.640625 -19.121094 L 3.066406 -22.449219 C 3.722656 -22.167969 4.335938 -21.839844 4.90625 -21.457031 C 4.683594 -21.605469 4.402344 -21.679688 4.054688 -21.679688 L 4.054688 -18.058594 L 3.753906 -21.667969 C 4.378906 -21.71875 5.007812 -21.8125 5.636719 -21.941406 C 6.269531 -22.074219 6.929688 -22.253906 7.609375 -22.480469 C 8.5 -22.757812 9.378906 -23.09375 10.242188 -23.484375 C 11.601562 -24.097656 13.121094 -24.488281 14.800781 -24.65625 L 19.671875 -25.144531 L 18.710938 -20.34375 C 18.601562 -19.792969 18.523438 -19.292969 18.46875 -18.84375 C 18.402344 -18.265625 18.332031 -17.738281 18.265625 -17.257812 L 18.253906 -17.175781 L 15.675781 -3.617188 L 13.105469 9.824219 C 12.886719 10.863281 12.75 11.914062 12.695312 12.980469 C 12.632812 14.175781 12.601562 15.382812 12.601562 16.609375 L 8.980469 16.609375 L 12.601562 16.507812 C 12.601562 16.582031 12.605469 16.632812 12.613281 16.660156 C 12.601562 16.597656 12.570312 16.519531 12.527344 16.425781 C 12.316406 15.980469 11.964844 15.648438 11.480469 15.433594 C 11.171875 15.292969 10.914062 15.238281 10.703125 15.265625 C 10.84375 15.246094 11.078125 15.167969 11.398438 15.027344 L 12.84375 18.347656 L 9.222656 18.347656 C 9.222656 17.363281 9.417969 15.769531 9.808594 13.5625 C 10.171875 11.519531 10.664062 9.085938 11.289062 6.269531 C 11.902344 3.480469 12.585938 0.527344 13.328125 -2.582031 C 14.074219 -5.691406 14.820312 -8.703125 15.5625 -11.617188 C 16.3125 -14.542969 17.011719 -17.160156 17.664062 -19.476562 C 18.339844 -21.871094 18.921875 -23.703125 19.414062 -24.972656 L 20.03125 -26.558594 L 21.644531 -27.09375 C 21.53125 -27.058594 21.4375 -27.011719 21.359375 -26.960938 C 21.824219 -27.269531 22.304688 -27.507812 22.804688 -27.675781 L 22.878906 -27.699219 L 38.019531 -32.019531 L 53.085938 -36.316406 L 54.078125 -32.832031 L 52.933594 -36.269531 C 53.761719 -36.546875 54.648438 -36.578125 55.589844 -36.367188 C 55.621094 -36.363281 55.695312 -36.359375 55.816406 -36.359375 L 60.332031 -36.359375 L 59.351562 -31.953125 C 59.242188 -31.460938 59.164062 -31.039062 59.113281 -30.679688 C 59.019531 -30.015625 58.871094 -29.382812 58.671875 -28.792969 L 55.238281 -29.9375 L 58.765625 -29.113281 C 58.050781 -26.070312 57.324219 -23.046875 56.582031 -20.039062 C 55.84375 -17.058594 55.125 -14.078125 54.429688 -11.09375 L 50.902344 4.800781 C 49.714844 10.089844 48.578125 15.390625 47.492188 20.699219 C 47.28125 21.753906 47.175781 22.820312 47.175781 23.902344 C 47.175781 25.277344 47.140625 26.671875 47.074219 28.082031 L 43.457031 27.910156 L 47.078125 27.910156 C 47.078125 27.652344 47.003906 27.367188 46.855469 27.058594 C 46.566406 26.449219 46.109375 26.003906 45.484375 25.722656 C 45.316406 25.644531 45.15625 25.59375 45.011719 25.5625 C 44.996094 25.558594 44.984375 25.558594 44.976562 25.558594 C 44.992188 25.558594 45.011719 25.5625 45.039062 25.5625 C 45.25 25.578125 45.550781 25.570312 45.949219 25.550781 L 46.160156 29.164062 L 42.648438 28.285156 L 46.65625 12.253906 L 50.671875 -3.820312 L 54.921875 -19.941406 C 56.351562 -25.40625 57.914062 -30.835938 59.605469 -36.234375 L 60.21875 -38.195312 L 62.214844 -38.671875 C 63.835938 -39.0625 65.425781 -39.433594 66.984375 -39.792969 C 68.542969 -40.148438 70.070312 -40.492188 71.570312 -40.816406 C 72.5625 -41.027344 73.566406 -41.207031 74.589844 -41.347656 C 76.15625 -41.5625 77.710938 -41.363281 79.25 -40.746094 C 79.429688 -40.675781 79.554688 -40.644531 79.628906 -40.65625 C 79.671875 -40.660156 79.742188 -40.699219 79.839844 -40.769531 L 81.988281 -37.855469 L 78.414062 -38.449219 C 78.417969 -38.46875 78.421875 -38.484375 78.421875 -38.496094 C 78.421875 -38.496094 78.421875 -38.492188 78.421875 -38.484375 C 78.421875 -38.425781 78.425781 -38.355469 78.441406 -38.273438 C 78.5 -37.917969 78.65625 -37.585938 78.917969 -37.273438 C 79.003906 -37.171875 79.089844 -37.101562 79.171875 -37.070312 C 78.753906 -37.226562 78.308594 -37.371094 77.832031 -37.503906 C 77.570312 -37.578125 77.3125 -37.613281 77.0625 -37.613281 L 77.0625 -41.234375 L 77.234375 -37.617188 C 75.9375 -37.554688 74.621094 -37.464844 73.289062 -37.339844 L 69.117188 -36.957031 C 68.535156 -36.898438 67.949219 -36.824219 67.363281 -36.738281 C 66.640625 -36.628906 65.855469 -36.539062 65.003906 -36.46875 L 61.292969 -36.160156 L 61.085938 -39.875 C 60.996094 -41.46875 61.164062 -42.941406 61.582031 -44.289062 C 61.863281 -45.195312 62.128906 -46.085938 62.378906 -46.960938 Z M 62.371094 -46.929688 "/></g></g></g><g fill="#000000" fill-opacity="1"><g transform="translate(174.822736, 205.189191)"><g><path d="M 65.859375 -45.96875 C 65.597656 -45.0625 65.320312 -44.140625 65.03125 -43.203125 C 64.738281 -42.273438 64.628906 -41.234375 64.703125 -40.078125 C 65.472656 -40.140625 66.175781 -40.21875 66.8125 -40.3125 C 67.457031 -40.40625 68.101562 -40.488281 68.75 -40.5625 C 70.164062 -40.6875 71.566406 -40.8125 72.953125 -40.9375 C 74.335938 -41.070312 75.707031 -41.171875 77.0625 -41.234375 C 77.632812 -41.234375 78.207031 -41.148438 78.78125 -40.984375 C 79.363281 -40.828125 79.914062 -40.648438 80.4375 -40.453125 C 80.945312 -40.265625 81.363281 -39.976562 81.6875 -39.59375 C 82.007812 -39.207031 82.109375 -38.628906 81.984375 -37.859375 C 80.753906 -36.953125 79.398438 -36.789062 77.921875 -37.375 C 76.960938 -37.757812 76.015625 -37.882812 75.078125 -37.75 C 74.140625 -37.625 73.222656 -37.460938 72.328125 -37.265625 C 70.847656 -36.953125 69.332031 -36.617188 67.78125 -36.265625 C 66.238281 -35.910156 64.664062 -35.539062 63.0625 -35.15625 C 61.382812 -29.8125 59.835938 -24.429688 58.421875 -19.015625 C 57.003906 -13.609375 55.585938 -8.234375 54.171875 -2.890625 C 52.816406 2.453125 51.476562 7.789062 50.15625 13.125 C 48.84375 18.46875 47.507812 23.8125 46.15625 29.15625 C 45.0625 29.226562 44.335938 29.179688 43.984375 29.015625 C 43.628906 28.859375 43.453125 28.488281 43.453125 27.90625 C 43.515625 26.550781 43.546875 25.210938 43.546875 23.890625 C 43.546875 22.578125 43.675781 21.273438 43.9375 19.984375 C 45.03125 14.640625 46.171875 9.3125 47.359375 4 C 48.554688 -1.300781 49.734375 -6.59375 50.890625 -11.875 C 51.597656 -14.90625 52.320312 -17.914062 53.0625 -20.90625 C 53.800781 -23.894531 54.523438 -26.90625 55.234375 -29.9375 C 55.359375 -30.320312 55.453125 -30.738281 55.515625 -31.1875 C 55.585938 -31.632812 55.6875 -32.148438 55.8125 -32.734375 C 55.425781 -32.734375 55.085938 -32.765625 54.796875 -32.828125 C 54.503906 -32.890625 54.265625 -32.890625 54.078125 -32.828125 C 49.054688 -31.410156 44.035156 -29.976562 39.015625 -28.53125 C 33.992188 -27.082031 28.972656 -25.648438 23.953125 -24.234375 C 23.753906 -24.171875 23.554688 -24.070312 23.359375 -23.9375 C 23.171875 -23.8125 22.976562 -23.71875 22.78125 -23.65625 C 22.332031 -22.5 21.785156 -20.773438 21.140625 -18.484375 C 20.503906 -16.203125 19.8125 -13.613281 19.0625 -10.71875 C 18.320312 -7.820312 17.582031 -4.828125 16.84375 -1.734375 C 16.101562 1.347656 15.425781 4.273438 14.8125 7.046875 C 14.207031 9.816406 13.726562 12.195312 13.375 14.1875 C 13.019531 16.1875 12.84375 17.570312 12.84375 18.34375 C 10.332031 19.4375 9.046875 18.859375 8.984375 16.609375 C 8.984375 15.316406 9.015625 14.039062 9.078125 12.78125 C 9.140625 11.53125 9.300781 10.296875 9.5625 9.078125 C 10.394531 4.628906 11.242188 0.171875 12.109375 -4.296875 C 12.984375 -8.773438 13.835938 -13.265625 14.671875 -17.765625 C 14.742188 -18.210938 14.8125 -18.707031 14.875 -19.25 C 14.9375 -19.800781 15.03125 -20.398438 15.15625 -21.046875 C 13.875 -20.921875 12.734375 -20.628906 11.734375 -20.171875 C 10.734375 -19.722656 9.71875 -19.335938 8.6875 -19.015625 C 7.914062 -18.765625 7.144531 -18.554688 6.375 -18.390625 C 5.601562 -18.234375 4.832031 -18.125 4.0625 -18.0625 C 3.664062 -18.0625 3.273438 -18.1875 2.890625 -18.4375 C 2.503906 -18.695312 2.085938 -18.925781 1.640625 -19.125 C 2.410156 -20.726562 3.472656 -21.816406 4.828125 -22.390625 C 6.179688 -22.972656 7.5 -23.554688 8.78125 -24.140625 C 10.007812 -24.785156 11.28125 -25.347656 12.59375 -25.828125 C 13.914062 -26.304688 15.285156 -26.835938 16.703125 -27.421875 C 17.148438 -29.359375 17.613281 -31.273438 18.09375 -33.171875 C 18.582031 -35.066406 19.050781 -36.984375 19.5 -38.921875 C 20.53125 -42.972656 21.5625 -47.023438 22.59375 -51.078125 C 23.625 -55.140625 24.65625 -59.195312 25.6875 -63.25 C 26.007812 -64.34375 26.347656 -65.40625 26.703125 -66.4375 C 27.054688 -67.46875 27.425781 -68.5 27.8125 -69.53125 C 28.070312 -70.164062 28.394531 -70.738281 28.78125 -71.25 C 29.164062 -71.769531 29.710938 -72.160156 30.421875 -72.421875 C 30.867188 -72.546875 31.332031 -72.578125 31.8125 -72.515625 C 32.300781 -72.453125 33.15625 -72.164062 34.375 -71.65625 C 34.3125 -69.914062 34.003906 -68.222656 33.453125 -66.578125 C 32.910156 -64.941406 32.445312 -63.253906 32.0625 -61.515625 C 31.675781 -59.773438 31.269531 -58.050781 30.84375 -56.34375 C 30.425781 -54.632812 29.992188 -52.945312 29.546875 -51.28125 C 28.710938 -47.800781 27.875 -44.351562 27.03125 -40.9375 C 26.582031 -39.269531 26.148438 -37.566406 25.734375 -35.828125 C 25.316406 -34.085938 24.847656 -32.285156 24.328125 -30.421875 C 24.847656 -30.421875 25.300781 -30.40625 25.6875 -30.375 C 26.070312 -30.34375 26.425781 -30.359375 26.75 -30.421875 C 31.570312 -31.640625 36.394531 -32.875 41.21875 -34.125 C 46.050781 -35.382812 50.914062 -36.628906 55.8125 -37.859375 C 56.007812 -37.921875 56.21875 -38.015625 56.4375 -38.140625 C 56.664062 -38.265625 56.941406 -38.394531 57.265625 -38.53125 C 57.453125 -39.101562 57.660156 -39.726562 57.890625 -40.40625 C 58.117188 -41.082031 58.328125 -41.773438 58.515625 -42.484375 C 60.253906 -49.054688 62.007812 -55.59375 63.78125 -62.09375 C 65.550781 -68.59375 67.367188 -75.09375 69.234375 -81.59375 C 69.878906 -83.84375 70.632812 -86.078125 71.5 -88.296875 C 72.375 -90.523438 73.257812 -92.703125 74.15625 -94.828125 C 74.675781 -96.046875 75.269531 -96.71875 75.9375 -96.84375 C 76.613281 -96.976562 77.726562 -96.722656 79.28125 -96.078125 C 79.21875 -94.984375 79.054688 -93.921875 78.796875 -92.890625 C 78.535156 -91.859375 78.273438 -90.796875 78.015625 -89.703125 C 75.960938 -82.429688 73.921875 -75.140625 71.890625 -67.828125 C 69.859375 -60.523438 67.847656 -53.238281 65.859375 -45.96875 Z M 65.859375 -45.96875 "/></g></g></g><g transform="matrix(1, 0, 0, 1, 107, 260)"><g clip-path="url(#130fe34077)"><g fill="#000000" fill-opacity="1"><g transform="translate(1.108572, 12.659657)"><g><path d="M 4.4375 0.15625 C 3.644531 0.15625 2.90625 0.046875 2.21875 -0.171875 C 1.539062 -0.398438 1.003906 -0.660156 0.609375 -0.953125 L 0.546875 -3.28125 L 0.75 -3.3125 C 0.96875 -2.71875 1.265625 -2.1875 1.640625 -1.71875 C 2.015625 -1.25 2.472656 -0.875 3.015625 -0.59375 C 3.554688 -0.3125 4.164062 -0.171875 4.84375 -0.171875 C 5.207031 -0.171875 5.546875 -0.242188 5.859375 -0.390625 C 6.171875 -0.546875 6.421875 -0.765625 6.609375 -1.046875 C 6.804688 -1.335938 6.90625 -1.695312 6.90625 -2.125 C 6.90625 -2.507812 6.796875 -2.84375 6.578125 -3.125 C 6.367188 -3.414062 6.09375 -3.664062 5.75 -3.875 C 5.414062 -4.082031 5.0625 -4.265625 4.6875 -4.421875 C 4.3125 -4.585938 3.972656 -4.734375 3.671875 -4.859375 C 3.140625 -5.085938 2.648438 -5.316406 2.203125 -5.546875 C 1.753906 -5.773438 1.394531 -6.066406 1.125 -6.421875 C 0.863281 -6.773438 0.734375 -7.253906 0.734375 -7.859375 C 0.734375 -8.816406 1.09375 -9.578125 1.8125 -10.140625 C 2.53125 -10.703125 3.5 -10.984375 4.71875 -10.984375 C 5.300781 -10.984375 5.84375 -10.925781 6.34375 -10.8125 C 6.84375 -10.695312 7.296875 -10.535156 7.703125 -10.328125 L 7.765625 -8.3125 L 7.59375 -8.25 C 7.269531 -9.039062 6.800781 -9.648438 6.1875 -10.078125 C 5.570312 -10.503906 4.882812 -10.71875 4.125 -10.71875 C 3.507812 -10.71875 2.984375 -10.539062 2.546875 -10.1875 C 2.117188 -9.84375 1.90625 -9.367188 1.90625 -8.765625 C 1.90625 -8.421875 1.988281 -8.117188 2.15625 -7.859375 C 2.332031 -7.609375 2.5625 -7.390625 2.84375 -7.203125 C 3.132812 -7.015625 3.441406 -6.847656 3.765625 -6.703125 C 4.085938 -6.566406 4.40625 -6.441406 4.71875 -6.328125 C 5.113281 -6.171875 5.515625 -6.003906 5.921875 -5.828125 C 6.328125 -5.648438 6.703125 -5.441406 7.046875 -5.203125 C 7.390625 -4.960938 7.664062 -4.675781 7.875 -4.34375 C 8.082031 -4.019531 8.1875 -3.625 8.1875 -3.15625 C 8.1875 -2.625 8.078125 -2.148438 7.859375 -1.734375 C 7.640625 -1.328125 7.347656 -0.984375 6.984375 -0.703125 C 6.628906 -0.421875 6.226562 -0.207031 5.78125 -0.0625 C 5.332031 0.0820312 4.882812 0.15625 4.4375 0.15625 Z M 4.4375 0.15625 "/></g></g></g><g fill="#000000" fill-opacity="1"><g transform="translate(14.683251, 12.659657)"><g><path d="M 6.40625 0.15625 C 5.738281 0.15625 5.078125 0.046875 4.421875 -0.171875 C 3.773438 -0.398438 3.175781 -0.742188 2.625 -1.203125 C 2.082031 -1.660156 1.648438 -2.242188 1.328125 -2.953125 C 1.003906 -3.660156 0.84375 -4.503906 0.84375 -5.484375 C 0.84375 -6.242188 0.972656 -6.957031 1.234375 -7.625 C 1.503906 -8.300781 1.882812 -8.890625 2.375 -9.390625 C 2.875 -9.890625 3.460938 -10.28125 4.140625 -10.5625 C 4.828125 -10.851562 5.582031 -11 6.40625 -11 C 7.050781 -11 7.703125 -10.882812 8.359375 -10.65625 C 9.015625 -10.425781 9.613281 -10.082031 10.15625 -9.625 C 10.695312 -9.164062 11.128906 -8.582031 11.453125 -7.875 C 11.773438 -7.164062 11.9375 -6.335938 11.9375 -5.390625 C 11.9375 -4.441406 11.773438 -3.617188 11.453125 -2.921875 C 11.128906 -2.222656 10.691406 -1.644531 10.140625 -1.1875 C 9.597656 -0.738281 9 -0.398438 8.34375 -0.171875 C 7.695312 0.046875 7.050781 0.15625 6.40625 0.15625 Z M 2.453125 -6.4375 C 2.503906 -5.65625 2.660156 -4.898438 2.921875 -4.171875 C 3.191406 -3.441406 3.535156 -2.785156 3.953125 -2.203125 C 4.378906 -1.628906 4.875 -1.171875 5.4375 -0.828125 C 6.007812 -0.492188 6.625 -0.328125 7.28125 -0.328125 C 8.082031 -0.328125 8.710938 -0.503906 9.171875 -0.859375 C 9.640625 -1.210938 9.96875 -1.679688 10.15625 -2.265625 C 10.351562 -2.847656 10.425781 -3.476562 10.375 -4.15625 C 10.3125 -4.988281 10.15625 -5.785156 9.90625 -6.546875 C 9.65625 -7.316406 9.320312 -8.003906 8.90625 -8.609375 C 8.488281 -9.222656 8 -9.707031 7.4375 -10.0625 C 6.875 -10.414062 6.257812 -10.59375 5.59375 -10.59375 C 4.882812 -10.59375 4.285156 -10.421875 3.796875 -10.078125 C 3.316406 -9.734375 2.957031 -9.25 2.71875 -8.625 C 2.488281 -8 2.398438 -7.269531 2.453125 -6.4375 Z M 2.453125 -6.4375 "/></g></g></g><g fill="#000000" fill-opacity="1"><g transform="translate(32.403787, 12.659657)"><g><path d="M 0.734375 0 L 0.734375 -0.21875 C 0.992188 -0.300781 1.160156 -0.472656 1.234375 -0.734375 C 1.304688 -1.003906 1.34375 -1.414062 1.34375 -1.96875 L 1.34375 -8.90625 C 1.34375 -9.457031 1.304688 -9.863281 1.234375 -10.125 C 1.160156 -10.394531 0.992188 -10.570312 0.734375 -10.65625 L 0.734375 -10.875 L 3.625 -10.875 L 3.625 -10.65625 C 3.363281 -10.570312 3.191406 -10.394531 3.109375 -10.125 C 3.035156 -9.863281 3 -9.457031 3 -8.90625 L 3 -1.0625 C 3 -0.539062 3.257812 -0.28125 3.78125 -0.28125 L 5.046875 -0.28125 C 5.835938 -0.28125 6.457031 -0.398438 6.90625 -0.640625 C 7.351562 -0.878906 7.734375 -1.328125 8.046875 -1.984375 L 8.25 -1.953125 L 8.125 0 Z M 0.734375 0 "/></g></g></g><g fill="#000000" fill-opacity="1"><g transform="translate(45.916355, 12.659657)"><g><path d="M 0.734375 0 L 0.734375 -0.21875 C 0.992188 -0.300781 1.160156 -0.472656 1.234375 -0.734375 C 1.304688 -1.003906 1.34375 -1.414062 1.34375 -1.96875 L 1.34375 -8.90625 C 1.34375 -9.457031 1.304688 -9.863281 1.234375 -10.125 C 1.160156 -10.394531 0.992188 -10.570312 0.734375 -10.65625 L 0.734375 -10.875 L 3.625 -10.875 L 3.625 -10.65625 C 3.363281 -10.570312 3.191406 -10.394531 3.109375 -10.125 C 3.035156 -9.863281 3 -9.457031 3 -8.90625 L 3 -1.96875 C 3 -1.414062 3.035156 -1.003906 3.109375 -0.734375 C 3.191406 -0.472656 3.363281 -0.300781 3.625 -0.21875 L 3.625 0 Z M 0.734375 0 "/></g></g></g><g fill="#000000" fill-opacity="1"><g transform="translate(55.252011, 12.659657)"><g><path d="M 0.734375 0 L 0.734375 -0.21875 C 0.992188 -0.300781 1.160156 -0.472656 1.234375 -0.734375 C 1.304688 -1.003906 1.34375 -1.414062 1.34375 -1.96875 L 1.34375 -8.90625 C 1.34375 -9.457031 1.304688 -9.863281 1.234375 -10.125 C 1.160156 -10.394531 0.992188 -10.570312 0.734375 -10.65625 L 0.734375 -10.875 L 8.1875 -10.875 L 8.359375 -8.6875 L 8.15625 -8.640625 C 7.84375 -9.398438 7.425781 -9.921875 6.90625 -10.203125 C 6.382812 -10.484375 5.6875 -10.625 4.8125 -10.625 L 3 -10.625 L 3 -5.96875 L 4.484375 -5.96875 C 5.117188 -5.96875 5.613281 -6.007812 5.96875 -6.09375 C 6.332031 -6.175781 6.601562 -6.300781 6.78125 -6.46875 C 6.957031 -6.644531 7.085938 -6.867188 7.171875 -7.140625 L 7.390625 -7.140625 L 7.390625 -4.53125 L 7.171875 -4.53125 C 7.085938 -4.800781 6.957031 -5.023438 6.78125 -5.203125 C 6.601562 -5.378906 6.332031 -5.507812 5.96875 -5.59375 C 5.613281 -5.675781 5.117188 -5.71875 4.484375 -5.71875 L 3 -5.71875 L 3 -1.03125 C 3 -0.507812 3.257812 -0.25 3.78125 -0.25 L 5.265625 -0.25 C 6.054688 -0.25 6.71875 -0.394531 7.25 -0.6875 C 7.789062 -0.976562 8.207031 -1.515625 8.5 -2.296875 L 8.703125 -2.265625 L 8.59375 0 Z M 0.734375 0 "/></g></g></g><g fill="#000000" fill-opacity="1"><g transform="translate(69.478847, 12.659657)"><g><path d="M 0.734375 0 L 0.734375 -0.21875 C 0.992188 -0.300781 1.160156 -0.472656 1.234375 -0.734375 C 1.304688 -1.003906 1.34375 -1.414062 1.34375 -1.96875 L 1.34375 -8.90625 C 1.34375 -9.457031 1.304688 -9.863281 1.234375 -10.125 C 1.160156 -10.394531 0.992188 -10.570312 0.734375 -10.65625 L 0.734375 -10.875 L 3.625 -10.875 L 3.625 -10.65625 C 3.363281 -10.570312 3.191406 -10.394531 3.109375 -10.125 C 3.035156 -9.863281 3 -9.457031 3 -8.90625 L 3 -1.0625 C 3 -0.539062 3.257812 -0.28125 3.78125 -0.28125 L 5.046875 -0.28125 C 5.835938 -0.28125 6.457031 -0.398438 6.90625 -0.640625 C 7.351562 -0.878906 7.734375 -1.328125 8.046875 -1.984375 L 8.25 -1.953125 L 8.125 0 Z M 0.734375 0 "/></g></g></g><g fill="#000000" fill-opacity="1"><g transform="translate(82.991416, 12.659657)"><g/></g></g><g fill="#000000" fill-opacity="1"><g transform="translate(91.084867, 12.659657)"><g><path d="M 4.4375 0.15625 C 3.644531 0.15625 2.90625 0.046875 2.21875 -0.171875 C 1.539062 -0.398438 1.003906 -0.660156 0.609375 -0.953125 L 0.546875 -3.28125 L 0.75 -3.3125 C 0.96875 -2.71875 1.265625 -2.1875 1.640625 -1.71875 C 2.015625 -1.25 2.472656 -0.875 3.015625 -0.59375 C 3.554688 -0.3125 4.164062 -0.171875 4.84375 -0.171875 C 5.207031 -0.171875 5.546875 -0.242188 5.859375 -0.390625 C 6.171875 -0.546875 6.421875 -0.765625 6.609375 -1.046875 C 6.804688 -1.335938 6.90625 -1.695312 6.90625 -2.125 C 6.90625 -2.507812 6.796875 -2.84375 6.578125 -3.125 C 6.367188 -3.414062 6.09375 -3.664062 5.75 -3.875 C 5.414062 -4.082031 5.0625 -4.265625 4.6875 -4.421875 C 4.3125 -4.585938 3.972656 -4.734375 3.671875 -4.859375 C 3.140625 -5.085938 2.648438 -5.316406 2.203125 -5.546875 C 1.753906 -5.773438 1.394531 -6.066406 1.125 -6.421875 C 0.863281 -6.773438 0.734375 -7.253906 0.734375 -7.859375 C 0.734375 -8.816406 1.09375 -9.578125 1.8125 -10.140625 C 2.53125 -10.703125 3.5 -10.984375 4.71875 -10.984375 C 5.300781 -10.984375 5.84375 -10.925781 6.34375 -10.8125 C 6.84375 -10.695312 7.296875 -10.535156 7.703125 -10.328125 L 7.765625 -8.3125 L 7.59375 -8.25 C 7.269531 -9.039062 6.800781 -9.648438 6.1875 -10.078125 C 5.570312 -10.503906 4.882812 -10.71875 4.125 -10.71875 C 3.507812 -10.71875 2.984375 -10.539062 2.546875 -10.1875 C 2.117188 -9.84375 1.90625 -9.367188 1.90625 -8.765625 C 1.90625 -8.421875 1.988281 -8.117188 2.15625 -7.859375 C 2.332031 -7.609375 2.5625 -7.390625 2.84375 -7.203125 C 3.132812 -7.015625 3.441406 -6.847656 3.765625 -6.703125 C 4.085938 -6.566406 4.40625 -6.441406 4.71875 -6.328125 C 5.113281 -6.171875 5.515625 -6.003906 5.921875 -5.828125 C 6.328125 -5.648438 6.703125 -5.441406 7.046875 -5.203125 C 7.390625 -4.960938 7.664062 -4.675781 7.875 -4.34375 C 8.082031 -4.019531 8.1875 -3.625 8.1875 -3.15625 C 8.1875 -2.625 8.078125 -2.148438 7.859375 -1.734375 C 7.640625 -1.328125 7.347656 -0.984375 6.984375 -0.703125 C 6.628906 -0.421875 6.226562 -0.207031 5.78125 -0.0625 C 5.332031 0.0820312 4.882812 0.15625 4.4375 0.15625 Z M 4.4375 0.15625 "/></g></g></g><g fill="#000000" fill-opacity="1"><g transform="translate(104.659546, 12.659657)"><g><path d="M 2.921875 0 L 2.921875 -0.21875 C 3.179688 -0.300781 3.347656 -0.472656 3.421875 -0.734375 C 3.503906 -1.003906 3.546875 -1.414062 3.546875 -1.96875 L 3.546875 -10.59375 L 3.0625 -10.59375 C 2.363281 -10.59375 1.816406 -10.472656 1.421875 -10.234375 C 1.035156 -10.003906 0.695312 -9.582031 0.40625 -8.96875 L 0.21875 -9 L 0.3125 -10.875 L 8.40625 -10.875 L 8.5 -9 L 8.3125 -8.96875 C 8.019531 -9.582031 7.675781 -10.003906 7.28125 -10.234375 C 6.882812 -10.472656 6.34375 -10.59375 5.65625 -10.59375 L 5.203125 -10.59375 L 5.203125 -1.96875 C 5.203125 -1.414062 5.238281 -1.003906 5.3125 -0.734375 C 5.394531 -0.472656 5.566406 -0.300781 5.828125 -0.21875 L 5.828125 0 Z M 2.921875 0 "/></g></g></g><g fill="#000000" fill-opacity="1"><g transform="translate(118.342917, 12.659657)"><g><path d="M 6.40625 0.15625 C 5.738281 0.15625 5.078125 0.046875 4.421875 -0.171875 C 3.773438 -0.398438 3.175781 -0.742188 2.625 -1.203125 C 2.082031 -1.660156 1.648438 -2.242188 1.328125 -2.953125 C 1.003906 -3.660156 0.84375 -4.503906 0.84375 -5.484375 C 0.84375 -6.242188 0.972656 -6.957031 1.234375 -7.625 C 1.503906 -8.300781 1.882812 -8.890625 2.375 -9.390625 C 2.875 -9.890625 3.460938 -10.28125 4.140625 -10.5625 C 4.828125 -10.851562 5.582031 -11 6.40625 -11 C 7.050781 -11 7.703125 -10.882812 8.359375 -10.65625 C 9.015625 -10.425781 9.613281 -10.082031 10.15625 -9.625 C 10.695312 -9.164062 11.128906 -8.582031 11.453125 -7.875 C 11.773438 -7.164062 11.9375 -6.335938 11.9375 -5.390625 C 11.9375 -4.441406 11.773438 -3.617188 11.453125 -2.921875 C 11.128906 -2.222656 10.691406 -1.644531 10.140625 -1.1875 C 9.597656 -0.738281 9 -0.398438 8.34375 -0.171875 C 7.695312 0.046875 7.050781 0.15625 6.40625 0.15625 Z M 2.453125 -6.4375 C 2.503906 -5.65625 2.660156 -4.898438 2.921875 -4.171875 C 3.191406 -3.441406 3.535156 -2.785156 3.953125 -2.203125 C 4.378906 -1.628906 4.875 -1.171875 5.4375 -0.828125 C 6.007812 -0.492188 6.625 -0.328125 7.28125 -0.328125 C 8.082031 -0.328125 8.710938 -0.503906 9.171875 -0.859375 C 9.640625 -1.210938 9.96875 -1.679688 10.15625 -2.265625 C 10.351562 -2.847656 10.425781 -3.476562 10.375 -4.15625 C 10.3125 -4.988281 10.15625 -5.785156 9.90625 -6.546875 C 9.65625 -7.316406 9.320312 -8.003906 8.90625 -8.609375 C 8.488281 -9.222656 8 -9.707031 7.4375 -10.0625 C 6.875 -10.414062 6.257812 -10.59375 5.59375 -10.59375 C 4.882812 -10.59375 4.285156 -10.421875 3.796875 -10.078125 C 3.316406 -9.734375 2.957031 -9.25 2.71875 -8.625 C 2.488281 -8 2.398438 -7.269531 2.453125 -6.4375 Z M 2.453125 -6.4375 "/></g></g></g><g fill="#000000" fill-opacity="1"><g transform="translate(136.063453, 12.659657)"><g><path d="M 8.640625 0.109375 C 8.210938 0.109375 7.867188 0.015625 7.609375 -0.171875 C 7.359375 -0.367188 7.132812 -0.660156 6.9375 -1.046875 C 6.75 -1.441406 6.535156 -1.941406 6.296875 -2.546875 C 6.066406 -3.117188 5.875 -3.597656 5.71875 -3.984375 C 5.5625 -4.367188 5.410156 -4.675781 5.265625 -4.90625 C 5.117188 -5.144531 4.941406 -5.316406 4.734375 -5.421875 C 4.523438 -5.523438 4.25 -5.578125 3.90625 -5.578125 L 3 -5.578125 L 3 -1.96875 C 3 -1.414062 3.035156 -1.003906 3.109375 -0.734375 C 3.191406 -0.472656 3.363281 -0.300781 3.625 -0.21875 L 3.625 0 L 0.734375 0 L 0.734375 -0.21875 C 0.992188 -0.300781 1.160156 -0.472656 1.234375 -0.734375 C 1.304688 -1.003906 1.34375 -1.414062 1.34375 -1.96875 L 1.34375 -8.90625 C 1.34375 -9.457031 1.304688 -9.863281 1.234375 -10.125 C 1.160156 -10.394531 0.992188 -10.570312 0.734375 -10.65625 L 0.734375 -10.875 L 3.984375 -10.875 C 4.835938 -10.875 5.53125 -10.800781 6.0625 -10.65625 C 6.59375 -10.519531 7.003906 -10.332031 7.296875 -10.09375 C 7.585938 -9.863281 7.789062 -9.597656 7.90625 -9.296875 C 8.019531 -9.003906 8.078125 -8.703125 8.078125 -8.390625 C 8.078125 -7.671875 7.828125 -7.0625 7.328125 -6.5625 C 6.828125 -6.070312 6.0625 -5.765625 5.03125 -5.640625 C 5.46875 -5.585938 5.828125 -5.5 6.109375 -5.375 C 6.390625 -5.25 6.628906 -5.066406 6.828125 -4.828125 C 7.035156 -4.597656 7.222656 -4.304688 7.390625 -3.953125 C 7.554688 -3.597656 7.742188 -3.160156 7.953125 -2.640625 C 8.234375 -1.953125 8.453125 -1.429688 8.609375 -1.078125 C 8.765625 -0.734375 8.90625 -0.5 9.03125 -0.375 C 9.164062 -0.257812 9.328125 -0.203125 9.515625 -0.203125 C 9.554688 -0.203125 9.59375 -0.203125 9.625 -0.203125 C 9.664062 -0.203125 9.707031 -0.207031 9.75 -0.21875 L 9.75 0 C 9.570312 0.0390625 9.375 0.0664062 9.15625 0.078125 C 8.945312 0.0976562 8.773438 0.109375 8.640625 0.109375 Z M 3 -5.828125 L 3.984375 -5.828125 C 4.578125 -5.828125 5.050781 -5.925781 5.40625 -6.125 C 5.769531 -6.320312 6.03125 -6.585938 6.1875 -6.921875 C 6.351562 -7.253906 6.4375 -7.617188 6.4375 -8.015625 C 6.4375 -8.441406 6.34375 -8.851562 6.15625 -9.25 C 5.96875 -9.644531 5.671875 -9.972656 5.265625 -10.234375 C 4.859375 -10.492188 4.332031 -10.625 3.6875 -10.625 C 3.46875 -10.625 3.238281 -10.609375 3 -10.578125 Z M 3 -5.828125 "/></g></g></g><g fill="#000000" fill-opacity="1"><g transform="translate(150.647423, 12.659657)"><g><path d="M 0.734375 0 L 0.734375 -0.21875 C 0.992188 -0.300781 1.160156 -0.472656 1.234375 -0.734375 C 1.304688 -1.003906 1.34375 -1.414062 1.34375 -1.96875 L 1.34375 -8.90625 C 1.34375 -9.457031 1.304688 -9.863281 1.234375 -10.125 C 1.160156 -10.394531 0.992188 -10.570312 0.734375 -10.65625 L 0.734375 -10.875 L 8.1875 -10.875 L 8.359375 -8.6875 L 8.15625 -8.640625 C 7.84375 -9.398438 7.425781 -9.921875 6.90625 -10.203125 C 6.382812 -10.484375 5.6875 -10.625 4.8125 -10.625 L 3 -10.625 L 3 -5.96875 L 4.484375 -5.96875 C 5.117188 -5.96875 5.613281 -6.007812 5.96875 -6.09375 C 6.332031 -6.175781 6.601562 -6.300781 6.78125 -6.46875 C 6.957031 -6.644531 7.085938 -6.867188 7.171875 -7.140625 L 7.390625 -7.140625 L 7.390625 -4.53125 L 7.171875 -4.53125 C 7.085938 -4.800781 6.957031 -5.023438 6.78125 -5.203125 C 6.601562 -5.378906 6.332031 -5.507812 5.96875 -5.59375 C 5.613281 -5.675781 5.117188 -5.71875 4.484375 -5.71875 L 3 -5.71875 L 3 -1.03125 C 3 -0.507812 3.257812 -0.25 3.78125 -0.25 L 5.265625 -0.25 C 6.054688 -0.25 6.71875 -0.394531 7.25 -0.6875 C 7.789062 -0.976562 8.207031 -1.515625 8.5 -2.296875 L 8.703125 -2.265625 L 8.59375 0 Z M 0.734375 0 "/></g></g></g></g></g></svg>